<?xml version="1.0" encoding="utf-8"?>
<!-- Generator: Adobe Illustrator 16.0.0, SVG Export Plug-In . SVG Version: 6.00 Build 0)  -->
<!DOCTYPE svg PUBLIC "-//W3C//DTD SVG 1.1//EN" "http://www.w3.org/Graphics/SVG/1.1/DTD/svg11.dtd">
<svg version="1.1" id="Layer_1" xmlns="http://www.w3.org/2000/svg" xmlns:xlink="http://www.w3.org/1999/xlink" x="0px" y="0px"
	 width="10.467px" height="18.168px" viewBox="0 0 10.467 18.168" enable-background="new 0 0 10.467 18.168" xml:space="preserve">
<path fill="#FFFFFF" d="M10.361,9.52c0.036-0.091,0.037-0.188,0.055-0.283c0.018-0.094,0.051-0.186,0.051-0.282
	c-0.001-0.089-0.035-0.173-0.051-0.261c-0.02-0.102-0.023-0.205-0.064-0.302c-0.033-0.081-0.099-0.147-0.147-0.222
	c-0.057-0.089-0.097-0.186-0.175-0.264L2.561,0.439c-0.586-0.585-1.536-0.585-2.122,0c-0.585,0.586-0.585,1.536,0,2.122l6.424,6.422
	l-6.44,6.641c-0.577,0.595-0.562,1.544,0.032,2.121c0.292,0.282,0.668,0.423,1.044,0.423c0.392,0,0.783-0.152,1.077-0.456
	l7.469-7.701c0.075-0.077,0.112-0.173,0.167-0.261C10.262,9.673,10.328,9.604,10.361,9.52z"/>
</svg>
