<?xml version="1.0" encoding="utf-8"?>
<!-- Generator: Adobe Illustrator 16.0.0, SVG Export Plug-In . SVG Version: 6.00 Build 0)  -->
<!DOCTYPE svg PUBLIC "-//W3C//DTD SVG 1.1//EN" "http://www.w3.org/Graphics/SVG/1.1/DTD/svg11.dtd">
<svg version="1.1" id="Layer_1" xmlns="http://www.w3.org/2000/svg" xmlns:xlink="http://www.w3.org/1999/xlink" x="0px" y="0px"
	 width="17.99px" height="18.287px" viewBox="0 0 17.99 18.287" enable-background="new 0 0 17.99 18.287" xml:space="preserve">
<path fill="#FFFFFF" d="M17.551,15.434l-6.387-6.385l6.213-6.406c0.576-0.595,0.562-1.544-0.033-2.121
	c-0.594-0.576-1.543-0.561-2.121,0.032L9.042,6.927L2.65,0.537c-0.586-0.585-1.535-0.585-2.121,0s-0.586,1.536,0,2.122l6.424,6.422
	l-6.44,6.641c-0.576,0.595-0.562,1.544,0.033,2.121c0.291,0.282,0.668,0.423,1.044,0.423c0.392,0,0.782-0.152,1.077-0.456
	l6.408-6.607l6.354,6.353c0.293,0.293,0.677,0.439,1.061,0.439s0.768-0.146,1.061-0.439C18.137,16.969,18.137,16.02,17.551,15.434z"
	/>
</svg>
