<?xml version="1.0" encoding="utf-8"?>
<!-- Generator: Adobe Illustrator 16.0.0, SVG Export Plug-In . SVG Version: 6.00 Build 0)  -->
<!DOCTYPE svg PUBLIC "-//W3C//DTD SVG 1.1//EN" "http://www.w3.org/Graphics/SVG/1.1/DTD/svg11.dtd">
<svg version="1.1" id="Layer_1" xmlns="http://www.w3.org/2000/svg" xmlns:xlink="http://www.w3.org/1999/xlink" x="0px" y="0px"
	 width="79px" height="90px" viewBox="0 0 79 90" enable-background="new 0 0 79 90" xml:space="preserve">
<g>
	<path fill="#E98551" d="M79,61.19V0H26.463h-5.316H6.063C3.004,0,0,2.126,0,5.186v11.218v0.032V90h53.507h2.974h5.656
		C71.704,90,79,81.622,79,72.056V61.19L79,61.19z"/>
	<g>
		<linearGradient id="SVGID_1_" gradientUnits="userSpaceOnUse" x1="-6.707" y1="75.6162" x2="52.4692" y2="48.0219">
			<stop  offset="0" style="stop-color:#000000;stop-opacity:0"/>
			<stop  offset="1" style="stop-color:#000000"/>
		</linearGradient>
		<polygon opacity="0.2" fill="url(#SVGID_1_)" points="22.575,30.035 0,52.289 0,90 30.913,90 59.101,62.244 25.609,57.244 		"/>
		<g>
			<path fill="#FFFFFF" d="M57.617,30H51v1.38c0,1.304-0.377,2.62-1.682,2.62h-0.093C47.922,34,46,32.684,46,31.38V30h-3v1.38
				c0,1.304-0.908,2.62-2.212,2.62h-0.093C39.392,34,38,32.684,38,31.38V30h-4v1.38c0,1.304-0.438,2.62-1.742,2.62h-0.093
				C30.861,34,29,32.684,29,31.38V30h-5.134C23.047,30,22,30.328,22,31.148v30.412C22,62.381,23.047,64,23.866,64h33.751
				C58.437,64,59,62.381,59,61.561V31.148C59,30.328,58.437,30,57.617,30z M53,53.764C53,54.446,52.446,55,51.764,55H28.236
				C27.554,55,27,54.446,27,53.764v-0.527C27,52.554,27.554,52,28.236,52h23.527C52.446,52,53,52.554,53,53.236V53.764z M53,47.764
				C53,48.446,52.446,49,51.764,49H28.236C27.554,49,27,48.446,27,47.764v-0.527C27,46.554,27.554,46,28.236,46h23.527
				C52.446,46,53,46.554,53,47.236V47.764z M53,41.764C53,42.446,52.446,43,51.764,43H28.236C27.554,43,27,42.446,27,41.764v-0.527
				C27,40.554,27.554,40,28.236,40h23.527C52.446,40,53,40.554,53,41.236V41.764z"/>
			<path fill="#FFFFFF" d="M40.695,33h0.093C41.479,33,42,32.07,42,31.38v-1.716v-2.828C42,26.146,41.479,26,40.788,26h-0.093
				C40.005,26,39,26.146,39,26.836v2.828v1.716C39,32.07,40.005,33,40.695,33z"/>
			<path fill="#FFFFFF" d="M49.226,33h0.093C50.009,33,50,32.07,50,31.38v-1.716v-2.828C50,26.146,50.009,26,49.318,26h-0.093
				C48.535,26,47,26.146,47,26.836v2.828v1.716C47,32.07,48.535,33,49.226,33z"/>
			<path fill="#FFFFFF" d="M32.165,33h0.093C32.948,33,33,32.07,33,31.38v-1.716v-2.828C33,26.146,32.948,26,32.258,26h-0.093
				C31.475,26,30,26.146,30,26.836v2.828v1.716C30,32.07,31.475,33,32.165,33z"/>
		</g>
	</g>
</g>
</svg>
