<?xml version="1.0" encoding="utf-8"?>
<!-- Generator: Adobe Illustrator 16.0.0, SVG Export Plug-In . SVG Version: 6.00 Build 0)  -->
<!DOCTYPE svg PUBLIC "-//W3C//DTD SVG 1.1//EN" "http://www.w3.org/Graphics/SVG/1.1/DTD/svg11.dtd">
<svg version="1.1" id="Layer_1" xmlns="http://www.w3.org/2000/svg" xmlns:xlink="http://www.w3.org/1999/xlink" x="0px" y="0px"
	 width="149.75px" height="100.5px" viewBox="0 0 149.75 100.5" enable-background="new 0 0 149.75 100.5" xml:space="preserve">
<g>
	<g>
		<g>
			<path fill="#0E304C" d="M23.594,81.947h-1.37l-7.449-8.58v8.58h-1.502V70.805h1.273l7.545,8.623v-8.623h1.502V81.947z"/>
			<path fill="#0E304C" d="M32.371,72.242h-4.721v3.365h4.558v1.438h-4.558v3.462h4.867v1.44h-6.467V70.805h6.322V72.242z"/>
			<path fill="#0E304C" d="M42.58,72.242h-3.854v9.705h-1.6v-9.705H33.27v-1.438h9.311V72.242z"/>
			<path fill="#0E304C" d="M55.339,82.045h-0.311l-3.657-9.117l-3.692,9.117h-0.311l-4.509-11.24h1.603l3.07,7.678l3.087-7.678
				h1.518l3.103,7.678l3.04-7.678h1.583L55.339,82.045z"/>
			<path fill="#0E304C" d="M65.945,70.657c3.675,0,5.996,2.614,5.996,5.718c0,3.007-2.256,5.718-6.03,5.718
				c-3.641,0-5.944-2.696-5.944-5.718C59.967,73.287,62.335,70.657,65.945,70.657z M65.945,80.623c2.5,0,4.343-1.814,4.343-4.248
				c0-2.451-1.843-4.246-4.343-4.246c-2.483,0-4.329,1.795-4.329,4.246C61.616,78.809,63.461,80.623,65.945,80.623z"/>
			<path fill="#0E304C" d="M76.746,70.805c2.254,0,3.658,1.192,3.658,3.119c0,1.291-0.67,2.255-1.863,2.729
				c1.014,0.67,1.634,1.7,2.483,3.088c0.474,0.767,0.751,1.145,1.519,2.207h-1.908l-1.471-2.291
				c-1.473-2.284-2.143-2.547-2.958-2.547h-0.669v4.838h-1.6V70.805H76.746z M75.537,75.674h1.029c1.716,0,2.205-0.883,2.188-1.815
				c-0.019-1.044-0.64-1.683-2.188-1.683h-1.029V75.674z"/>
			<path fill="#0E304C" d="M93.244,81.947h-2.203l-5.67-5.507v5.507h-1.598V70.805h1.598v5.098l4.688-5.098h1.991l-4.848,5.275
				L93.244,81.947z"/>
		</g>
		<path fill="#0E304C" d="M27.57,61.924c-6.873,0-11.788-2.244-15.193-4.487l3.835-7.163c2.969,1.953,6.584,3.689,10.928,3.689
			c3.471,0,7.38-1.303,7.38-4.923c0-6.295-11.579-7.381-17.367-13.966c-1.809-2.099-3.038-4.775-3.038-8.467
			c0-7.235,5.717-13.604,16.206-13.604c5.066,0,9.26,1.302,12.01,2.896l-0.144,8.538c-4.053-2.17-7.455-3.474-11.36-3.474
			c-3.545,0-6.294,1.593-6.294,4.344c0,8.25,20.477,7.524,20.477,22.506C45.01,56.495,37.338,61.924,27.57,61.924z"/>
		<path fill="#0E304C" d="M70.771,61.924c-15.124,0-24.168-10.711-24.168-24.099c0-13.895,10.779-24.822,27.057-24.822
			c6.226,0,10.492,1.084,14.326,2.387l-0.141,8.975c-3.911-2.028-8.178-3.332-12.952-3.332c-12.663,0-17.512,7.674-17.512,16.066
			c0,9.193,6.006,16.864,15.916,16.864c2.75,0,5.284-0.434,7.016-1.159V36.813h9.916V57.22
			C85.238,59.898,78.654,61.924,70.771,61.924z"/>
		<g>
			<g>
				<path fill="#0E304C" d="M105.354,49.716l0.062-0.166h0.25c2.368-1.248,5.063-1.958,7.925-1.958c2.862,0,5.558,0.709,7.925,1.958
					h0.105l0.027,0.066c4.381,2.356,7.615,6.565,8.646,11.584h6.591l-19.458-47.909h-7.526L91.236,61.2h5.652
					C97.906,56.252,101.064,52.088,105.354,49.716z M113.519,26.463h0.072c0.287,1.521,0.94,3.475,1.735,5.861l3.258,9.263H108.24
					L113.519,26.463z"/>
			</g>
		</g>
		<path fill="#0E304C" d="M81.784,64.367l-0.011,0.005l-0.013,0.003c-0.472,0.156-0.928,0.311-1.371,0.457l8.604,3.006v-6.006
			L81.784,64.367z"/>
		<path fill="#0E304C" d="M138.373,61.365l8.424,3.128c-0.734,0.235-1.558,0.525-2.484,0.854l-0.055,0.02l-5.885,2.197V61.365z"/>
		<g>
			<g>
				<path fill="#0E304C" d="M118.491,89.017l-0.784,2.253c11.893-1.391,21.328-10.941,22.538-22.891l-2.231,0.785
					C136.546,79.324,128.598,87.383,118.491,89.017z"/>
				<path fill="#0E304C" d="M129.025,3.474H15.562C9.3,3.474,4.204,8.572,4.204,14.837V80.09c0,6.264,5.096,11.359,11.357,11.359
					H98.08h11.837l-0.749-2.125H98.08H15.562c-5.098,0-9.231-4.133-9.231-9.234V14.837c0-5.1,4.133-9.236,9.231-9.236h113.464
					c5.099,0,9.231,4.136,9.231,9.236v45.019l2.128,0.742V14.837C140.385,8.572,135.287,3.474,129.025,3.474z"/>
			</g>
		</g>
		<path fill="#0E304C" d="M116.859,89.031l-3.127,8.426c-0.234-0.735-0.524-1.559-0.854-2.484l-0.02-0.055l-2.197-5.887H116.859z"/>
		<path fill="#0E304C" d="M111.578,38.667l1.992-5.371c0.151,0.468,0.334,0.993,0.544,1.584l0.013,0.036l1.4,3.751H111.578z"/>
		<path fill="#0E304C" d="M113.591,50.9c-7.579,0-13.746,6.17-13.746,13.75c0,7.582,6.167,13.752,13.746,13.752
			c7.581,0,13.749-6.17,13.749-13.752C127.34,57.07,121.172,50.9,113.591,50.9z"/>
	</g>
</g>
</svg>
